<?xml version="1.0" standalone="no"?>
<!DOCTYPE svg PUBLIC "-//W3C//DTD SVG 20010904//EN"
 "http://www.w3.org/TR/2001/REC-SVG-20010904/DTD/svg10.dtd">
<svg version="1.0" xmlns="http://www.w3.org/2000/svg"
 width="512.000000pt" height="512.000000pt" viewBox="0 0 512.000000 512.000000"
 preserveAspectRatio="xMidYMid meet">

<g transform="translate(0.000000,512.000000) scale(0.100000,-0.100000)"
fill="#000000" stroke="none">
<path d="M1983 5055 c-61 -26 -63 -38 -63 -405 l0 -330 -214 0 -215 0 -3 144
c-3 142 -3 145 -33 188 -17 24 -51 54 -75 68 l-45 25 -554 3 c-371 2 -572 -1
-605 -8 -71 -15 -120 -53 -151 -113 l-25 -51 0 -2176 0 -2176 25 -51 c30 -60
80 -98 150 -113 35 -7 777 -10 2415 -8 2149 3 2368 4 2400 19 46 21 89 65 111
114 17 38 19 82 19 720 l0 680 -24 51 c-25 54 -69 94 -125 113 -19 6 -90 11
-158 11 l-123 0 2 533 3 532 180 5 c99 3 187 9 196 13 9 5 24 23 34 41 23 42
14 94 -21 127 -25 23 -31 24 -210 27 l-184 3 2 532 3 532 180 5 c99 3 187 9
196 13 23 12 49 62 49 96 0 20 -10 42 -29 63 l-29 33 -186 3 -186 3 0 338 c0
324 -1 339 -20 364 -30 38 -80 52 -123 33 -66 -27 -67 -36 -67 -406 l0 -330
-535 0 -535 0 0 339 c0 324 -1 339 -20 364 -30 38 -80 52 -123 33 -66 -27 -67
-36 -67 -406 l0 -330 -535 0 -535 0 0 338 c0 374 1 370 -66 398 -40 17 -41 17
-81 -1z m-703 -962 c0 -275 4 -452 11 -476 13 -49 63 -105 114 -128 35 -16 69
-19 278 -19 l237 0 0 -555 c0 -541 0 -556 21 -611 39 -103 65 -123 560 -419
251 -151 476 -283 500 -293 98 -42 113 -43 1024 -45 l880 -2 3 -637 2 -638
-2350 0 -2350 0 0 2130 0 2130 535 0 535 0 0 -437z m640 -198 l0 -215 -215 0
-215 0 0 208 c0 115 3 212 7 215 3 4 100 7 215 7 l208 0 0 -215z m1280 -320
l0 -535 -535 0 -534 0 -1 528 c0 291 3 532 7 535 3 4 244 7 535 7 l528 0 0
-535z m1280 0 l0 -535 -535 0 -535 0 0 528 c0 291 3 532 7 535 3 4 244 7 535
7 l528 0 0 -535z m-1280 -1280 c0 -605 9 -550 -85 -517 -57 20 -917 532 -955
568 -25 24 -25 25 -28 241 -2 118 -1 222 2 229 4 12 96 14 536 14 l530 0 0
-535z m1280 0 l0 -535 -535 0 -535 0 0 528 c0 291 3 532 7 535 3 4 244 7 535
7 l528 0 0 -535z"/>
</g>
</svg>
