<?xml version="1.0" standalone="no"?>
<!DOCTYPE svg PUBLIC "-//W3C//DTD SVG 20010904//EN"
 "http://www.w3.org/TR/2001/REC-SVG-20010904/DTD/svg10.dtd">
<svg version="1.0" xmlns="http://www.w3.org/2000/svg"
 width="512.000000pt" height="512.000000pt" viewBox="0 0 512.000000 512.000000"
 preserveAspectRatio="xMidYMid meet">

<g transform="translate(0.000000,512.000000) scale(0.100000,-0.100000)"
fill="#000000" stroke="none">
<path d="M729 4595 c-15 -8 -32 -29 -38 -46 -8 -22 -11 -227 -11 -661 l0 -628
-37 19 c-70 35 -119 113 -130 204 -8 63 -37 97 -85 97 -54 -1 -88 -40 -88
-102 0 -45 -40 -126 -81 -165 -41 -38 -89 -60 -155 -68 -55 -8 -75 -19 -92
-52 -28 -51 4 -108 66 -118 86 -13 140 -36 182 -76 47 -46 68 -88 80 -167 5
-30 17 -63 26 -73 33 -37 99 -32 130 10 7 8 15 39 18 69 8 63 27 105 70 150
27 30 75 62 91 62 3 0 5 -551 5 -1224 0 -869 3 -1232 11 -1255 23 -65 -113
-61 1869 -61 1982 0 1846 -4 1869 61 8 22 11 214 11 615 0 321 2 584 5 584 16
0 64 -32 91 -62 43 -45 62 -87 70 -150 3 -30 11 -61 18 -69 31 -42 97 -47 130
-10 9 10 21 43 26 73 24 147 100 218 262 243 62 10 94 67 66 118 -17 33 -37
44 -92 52 -66 8 -114 30 -155 68 -41 39 -81 120 -81 165 0 62 -34 101 -88 102
-48 0 -77 -34 -85 -97 -11 -91 -60 -169 -129 -204 l-38 -19 0 1268 c0 903 -3
1278 -11 1301 -23 65 113 61 -1871 61 -1548 -1 -1807 -3 -1829 -15z m2641
-162 c0 -4 -144 -152 -320 -328 -330 -331 -335 -337 -308 -388 17 -33 39 -46
77 -47 33 0 61 26 421 385 l386 385 127 0 c70 0 127 -3 127 -7 0 -4 -259 -267
-575 -583 -511 -512 -575 -579 -575 -606 0 -46 39 -84 87 -84 37 0 57 19 678
641 l641 640 65 -3 64 -3 3 -1608 2 -1608 -23 27 c-18 21 -37 29 -82 35 -140
19 -216 99 -240 253 -18 113 -152 113 -170 0 -24 -154 -100 -234 -239 -253
-71 -10 -98 -34 -98 -87 0 -45 37 -84 80 -84 81 0 176 -55 217 -124 14 -24 30
-73 36 -108 11 -72 41 -108 89 -108 48 0 78 36 89 108 6 35 22 84 36 108 41
70 136 124 218 124 18 0 39 11 58 29 l29 30 -2 -242 -3 -242 -872 -3 c-480 -1
-873 1 -873 5 0 5 142 150 316 324 275 275 315 319 316 347 2 65 -53 106 -110
83 -15 -7 -196 -180 -402 -386 l-375 -375 -135 0 -135 0 578 578 c349 349 577
585 578 597 4 64 -29 105 -84 105 -29 0 -94 -62 -672 -640 l-640 -640 -450 2
-450 3 -2 1570 c-2 1186 0 1565 9 1550 19 -33 40 -43 110 -55 119 -21 197 -99
218 -218 6 -37 17 -75 24 -84 20 -27 62 -39 93 -27 38 14 50 36 63 111 21 119
99 197 218 218 37 6 75 17 84 24 27 20 39 62 27 93 -14 38 -36 50 -111 63
-119 21 -197 99 -218 218 -13 75 -25 97 -63 111 -31 12 -73 0 -93 -27 -7 -9
-18 -47 -24 -84 -21 -119 -99 -197 -218 -218 -70 -12 -91 -22 -110 -55 -9 -15
-11 46 -12 266 0 157 3 289 7 292 9 9 2513 9 2513 0z m-2045 -553 l39 -40 -42
-43 -42 -42 -42 42 -42 43 39 40 c21 22 42 40 45 40 3 0 24 -18 45 -40z m-856
-763 l-39 -39 -44 40 -43 40 41 41 40 41 43 -42 42 -41 -40 -40z m4265 -1279
l-44 -40 -39 38 -40 39 42 43 41 42 42 -41 42 -41 -44 -40z m-851 -606 l37
-38 -40 -39 -40 -39 -40 39 -40 39 37 38 c20 21 40 38 43 38 3 0 23 -17 43
-38z"/>
</g>
</svg>
