<svg width="40" height="38" viewBox="0 0 40 38" fill="none" xmlns="http://www.w3.org/2000/svg">
<path d="M38.75 37.6875H5.93752C5.03512 37.6886 4.14645 37.4664 3.35077 37.0407C2.55509 36.615 1.87712 35.999 1.37732 35.2477C0.877515 34.4963 0.571409 33.6329 0.486295 32.7346C0.401181 31.8362 0.539705 30.9307 0.889515 30.0988C1.23933 29.267 1.78955 28.5346 2.49113 27.9671C3.1927 27.3995 4.02383 27.0144 4.91039 26.846C5.79695 26.6777 6.7114 26.7313 7.57219 27.0022C8.43299 27.2731 9.21338 27.7527 9.84377 28.3984V6.4375C9.84377 6.2303 9.92608 6.03159 10.0726 5.88507C10.2191 5.73856 10.4178 5.65625 10.625 5.65625H38.75C38.9572 5.65625 39.1559 5.73856 39.3024 5.88507C39.449 6.03159 39.5313 6.2303 39.5313 6.4375V36.9062C39.5313 37.1135 39.449 37.3122 39.3024 37.4587C39.1559 37.6052 38.9572 37.6875 38.75 37.6875ZM5.93752 28.3125C4.90152 28.3125 3.90795 28.7241 3.17539 29.4566C2.44282 30.1892 2.03127 31.1827 2.03127 32.2188C2.03127 33.2548 2.44282 34.2483 3.17539 34.9809C3.90795 35.7134 4.90152 36.125 5.93752 36.125H37.9688V7.21875H11.4063V32.2188C11.4063 32.426 11.324 32.6247 11.1775 32.7712C11.0309 32.9177 10.8322 33 10.625 33C10.4178 33 10.2191 32.9177 10.0726 32.7712C9.92608 32.6247 9.84377 32.426 9.84377 32.2188C9.84377 31.1827 9.43222 30.1892 8.69966 29.4566C7.96709 28.7241 6.97352 28.3125 5.93752 28.3125V28.3125Z" fill="black"/>
<path d="M10.625 33C10.4178 33 10.2191 32.9177 10.0726 32.7712C9.92606 32.6247 9.84375 32.426 9.84375 32.2188C9.84375 31.1827 9.4322 30.1892 8.69964 29.4566C7.96707 28.7241 6.9735 28.3125 5.9375 28.3125C4.9015 28.3125 3.90793 28.7241 3.17536 29.4566C2.4428 30.1892 2.03125 31.1827 2.03125 32.2188C2.03125 32.426 1.94894 32.6247 1.80243 32.7712C1.65591 32.9177 1.4572 33 1.25 33C1.0428 33 0.844086 32.9177 0.697573 32.7712C0.55106 32.6247 0.46875 32.426 0.46875 32.2188V6.4375C0.46875 4.9871 1.04492 3.5961 2.07051 2.57051C3.0961 1.54492 4.4871 0.96875 5.9375 0.96875C7.3879 0.96875 8.7789 1.54492 9.80449 2.57051C10.8301 3.5961 11.4062 4.9871 11.4062 6.4375V32.2188C11.4062 32.426 11.3239 32.6247 11.1774 32.7712C11.0309 32.9177 10.8322 33 10.625 33ZM5.9375 26.75C6.66556 26.7509 7.3861 26.8972 8.05688 27.1803C8.72765 27.4633 9.33515 27.8775 9.84375 28.3984V6.4375C9.84375 5.4015 9.4322 4.40793 8.69964 3.67536C7.96707 2.9428 6.9735 2.53125 5.9375 2.53125C4.9015 2.53125 3.90793 2.9428 3.17536 3.67536C2.4428 4.40793 2.03125 5.4015 2.03125 6.4375V28.3984C2.53985 27.8775 3.14735 27.4633 3.81812 27.1803C4.4889 26.8972 5.20944 26.7509 5.9375 26.75V26.75ZM27.0312 30.6562H16.0938C15.8865 30.6562 15.6878 30.5739 15.5413 30.4274C15.3948 30.2809 15.3125 30.0822 15.3125 29.875V18.9375C15.3125 18.7303 15.3948 18.5316 15.5413 18.3851C15.6878 18.2386 15.8865 18.1562 16.0938 18.1562H27.0312C27.2385 18.1562 27.4372 18.2386 27.5837 18.3851C27.7302 18.5316 27.8125 18.7303 27.8125 18.9375V29.875C27.8125 30.0822 27.7302 30.2809 27.5837 30.4274C27.4372 30.5739 27.2385 30.6562 27.0312 30.6562ZM16.875 29.0938H26.25V19.7188H16.875V29.0938Z" fill="black"/>
<path d="M32.5 25.1875H21.5625C21.3553 25.1875 21.1566 25.1052 21.0101 24.9587C20.8636 24.8122 20.7812 24.6135 20.7812 24.4062V13.4688C20.7812 13.2615 20.8636 13.0628 21.0101 12.9163C21.1566 12.7698 21.3553 12.6875 21.5625 12.6875H32.5C32.7072 12.6875 32.9059 12.7698 33.0524 12.9163C33.1989 13.0628 33.2812 13.2615 33.2812 13.4688V24.4062C33.2812 24.6135 33.1989 24.8122 33.0524 24.9587C32.9059 25.1052 32.7072 25.1875 32.5 25.1875ZM22.3438 23.625H31.7188V14.25H22.3438V23.625Z" fill="black"/>
<path d="M16.0938 19.7188C15.9909 19.7194 15.889 19.6997 15.7938 19.6608C15.6987 19.6219 15.6121 19.5646 15.5391 19.4922C15.4659 19.4196 15.4077 19.3332 15.3681 19.238C15.3284 19.1428 15.308 19.0407 15.308 18.9375C15.308 18.8344 15.3284 18.7323 15.3681 18.6371C15.4077 18.5419 15.4659 18.4555 15.5391 18.3828L21.0078 12.9141C21.1549 12.767 21.3545 12.6843 21.5625 12.6843C21.7706 12.6843 21.9701 12.767 22.1172 12.9141C22.2643 13.0612 22.347 13.2607 22.347 13.4688C22.347 13.6768 22.2643 13.8763 22.1172 14.0235L16.6485 19.4922C16.5755 19.5646 16.4889 19.6219 16.3937 19.6608C16.2985 19.6997 16.1966 19.7194 16.0938 19.7188ZM27.0313 19.7188C26.9284 19.7194 26.8265 19.6997 26.7313 19.6608C26.6362 19.6219 26.5496 19.5646 26.4766 19.4922C26.4034 19.4196 26.3452 19.3332 26.3056 19.238C26.2659 19.1428 26.2455 19.0407 26.2455 18.9375C26.2455 18.8344 26.2659 18.7323 26.3056 18.6371C26.3452 18.5419 26.4034 18.4555 26.4766 18.3828L31.9453 12.9141C32.0182 12.8412 32.1046 12.7835 32.1998 12.744C32.295 12.7046 32.397 12.6843 32.5 12.6843C32.603 12.6843 32.705 12.7046 32.8002 12.744C32.8954 12.7835 32.9819 12.8412 33.0547 12.9141C33.1275 12.9869 33.1853 13.0734 33.2247 13.1686C33.2642 13.2638 33.2845 13.3658 33.2845 13.4688C33.2845 13.5718 33.2642 13.6738 33.2247 13.769C33.1853 13.8641 33.1275 13.9506 33.0547 14.0235L27.586 19.4922C27.513 19.5646 27.4264 19.6219 27.3312 19.6608C27.236 19.6997 27.1341 19.7194 27.0313 19.7188ZM27.0313 30.6563C26.9284 30.6569 26.8265 30.6372 26.7313 30.5983C26.6362 30.5594 26.5496 30.5021 26.4766 30.4297C26.4034 30.3571 26.3452 30.2707 26.3056 30.1755C26.2659 30.0803 26.2455 29.9782 26.2455 29.875C26.2455 29.7719 26.2659 29.6698 26.3056 29.5746C26.3452 29.4794 26.4034 29.393 26.4766 29.3203L31.9453 23.8516C32.0182 23.7787 32.1046 23.721 32.1998 23.6815C32.295 23.6421 32.397 23.6218 32.5 23.6218C32.603 23.6218 32.705 23.6421 32.8002 23.6815C32.8954 23.721 32.9819 23.7787 33.0547 23.8516C33.1275 23.9244 33.1853 24.0109 33.2247 24.1061C33.2642 24.2013 33.2845 24.3033 33.2845 24.4063C33.2845 24.5093 33.2642 24.6113 33.2247 24.7065C33.1853 24.8016 33.1275 24.8881 33.0547 24.961L27.586 30.4297C27.513 30.5021 27.4264 30.5594 27.3312 30.5983C27.236 30.6372 27.1341 30.6569 27.0313 30.6563ZM16.0938 30.6563C15.9909 30.6569 15.889 30.6372 15.7938 30.5983C15.6987 30.5594 15.6121 30.5021 15.5391 30.4297C15.4659 30.3571 15.4077 30.2707 15.3681 30.1755C15.3284 30.0803 15.308 29.9782 15.308 29.875C15.308 29.7719 15.3284 29.6698 15.3681 29.5746C15.4077 29.4794 15.4659 29.393 15.5391 29.3203L21.0078 23.8516C21.0807 23.7787 21.1671 23.721 21.2623 23.6815C21.3575 23.6421 21.4595 23.6218 21.5625 23.6218C21.6655 23.6218 21.7675 23.6421 21.8627 23.6815C21.9579 23.721 22.0444 23.7787 22.1172 23.8516C22.19 23.9244 22.2478 24.0109 22.2872 24.1061C22.3267 24.2013 22.347 24.3033 22.347 24.4063C22.347 24.5093 22.3267 24.6113 22.2872 24.7065C22.2478 24.8016 22.19 24.8881 22.1172 24.961L16.6485 30.4297C16.5755 30.5021 16.4889 30.5594 16.3937 30.5983C16.2985 30.6372 16.1966 30.6569 16.0938 30.6563Z" fill="black"/>
</svg>
