<?xml version="1.0" standalone="no"?>
<!DOCTYPE svg PUBLIC "-//W3C//DTD SVG 20010904//EN"
 "http://www.w3.org/TR/2001/REC-SVG-20010904/DTD/svg10.dtd">
<svg version="1.0" xmlns="http://www.w3.org/2000/svg"
 width="512.000000pt" height="512.000000pt" viewBox="0 0 512.000000 512.000000"
 preserveAspectRatio="xMidYMid meet">

<g transform="translate(0.000000,512.000000) scale(0.100000,-0.100000)"
fill="#000000" stroke="none">
<path d="M2045 4901 c-16 -10 -369 -358 -782 -773 -588 -588 -755 -761 -763
-788 -6 -20 -10 -155 -10 -310 0 -248 2 -279 19 -317 36 -79 27 -77 454 -83
l379 -5 34 -37 34 -38 0 -352 0 -353 -450 -450 c-351 -350 -452 -458 -460
-485 -5 -19 -10 -159 -10 -310 0 -266 1 -277 23 -320 43 -87 -67 -80 1310 -80
1037 0 1222 2 1245 14 15 8 370 358 788 778 636 637 763 769 768 797 3 18 6
156 6 305 0 246 -2 275 -20 313 -11 25 -33 51 -52 63 -31 19 -50 20 -386 20
-383 0 -398 2 -440 55 -22 27 -22 34 -22 379 l0 351 450 450 c351 350 452 458
460 485 5 19 10 159 10 310 0 266 -1 277 -22 320 -44 87 67 80 -1313 80 -1181
0 -1221 -1 -1250 -19z m1558 -863 l-593 -593 -1007 3 -1008 2 590 590 590 590
1010 0 1010 0 -592 -592z m140 -320 l-588 -588 -3 87 -3 87 588 588 588 588 3
-87 3 -87 -588 -588z m-883 -683 l0 -115 -284 0 c-251 0 -291 -2 -345 -19
-121 -37 -204 -110 -258 -227 l-28 -59 0 -795 0 -795 27 -58 c54 -115 172
-209 296 -236 32 -6 161 -11 323 -11 l270 0 -3 -112 -3 -113 -1032 -3 -1033
-2 0 115 0 115 266 0 c206 0 281 4 335 16 130 29 243 130 292 260 22 59 22 64
25 779 2 476 -1 743 -8 790 -21 141 -100 249 -228 312 l-76 38 -303 3 -303 3
0 115 0 114 1035 0 1035 0 0 -115z m577 -557 c12 -32 31 -72 44 -89 l22 -31
-538 -538 c-492 -492 -537 -540 -531 -564 4 -17 15 -28 32 -32 24 -6 72 39
563 530 l537 537 58 -35 c81 -49 128 -56 364 -56 l207 0 -590 -590 -590 -590
-348 0 c-291 0 -353 2 -377 15 -62 32 -60 5 -60 787 0 698 1 714 20 746 37 60
51 62 440 62 285 0 356 3 378 14 15 8 97 85 182 170 l155 156 6 -217 c5 -187
9 -226 26 -275z m311 -1185 c-321 -321 -586 -583 -590 -583 -5 0 -8 37 -8 82
l0 83 588 588 587 587 3 -87 3 -87 -583 -583z m-2338 -34 l0 -171 -34 -34 -34
-34 -173 0 -174 0 205 205 c113 113 206 205 207 205 2 0 3 -77 3 -171z"/>
</g>
</svg>
